<svg width="24" height="24" viewBox="0 0 24 24" fill="none" xmlns="http://www.w3.org/2000/svg">
<path d="M16.9312 2.98828H3.67689C2.39538 2.98828 1.3584 4.02979 1.3584 5.3113V12.5611C1.3584 13.2041 1.61651 13.7838 2.03764 14.2049C2.45425 14.626 3.03387 14.8841 3.67689 14.8841C3.83085 14.8841 3.94859 15.02 3.92595 15.1785L3.53651 17.6781C3.49576 17.9226 3.78557 18.0675 3.95764 17.8955L6.95991 14.9566C7.00972 14.9113 7.06859 14.8841 7.13651 14.8841H16.9312C18.2127 14.8841 19.2542 13.8471 19.2542 12.5611V5.3113C19.2542 4.02979 18.2127 2.98828 16.9312 2.98828ZM6.66557 8.73922L6.02255 9.36413C5.96821 9.41847 5.94104 9.49998 5.95463 9.57696L6.10859 10.46C6.14029 10.6502 5.93651 10.7996 5.76444 10.709L4.96746 10.2924C4.93401 10.2746 4.89668 10.2653 4.85878 10.2653C4.82087 10.2653 4.78354 10.2746 4.7501 10.2924L3.94859 10.709C3.77651 10.7996 3.57274 10.6547 3.60896 10.46L3.7584 9.57696C3.76469 9.53934 3.7618 9.50075 3.74997 9.46448C3.73815 9.42822 3.71773 9.39534 3.69047 9.36866L3.04746 8.73922C3.01578 8.70808 2.99338 8.66874 2.98278 8.6256C2.97217 8.58246 2.97377 8.53722 2.98739 8.49494C3.00102 8.45266 3.02613 8.415 3.05993 8.38617C3.09373 8.35733 3.13487 8.33847 3.17878 8.33168L4.06632 8.20489C4.1433 8.19583 4.21123 8.14602 4.24746 8.07809L4.64595 7.26753C4.73198 7.09092 4.98557 7.09092 5.07161 7.26753L5.46557 8.07809C5.50179 8.14602 5.56972 8.19583 5.6467 8.20489L6.53425 8.33168C6.72897 8.36338 6.80595 8.59885 6.66557 8.73922ZM12.1131 8.73922L11.4701 9.36413C11.4158 9.41847 11.3886 9.49998 11.4022 9.57696L11.5561 10.46C11.5878 10.6502 11.3886 10.7996 11.212 10.709L10.415 10.2924C10.3816 10.2746 10.3442 10.2653 10.3063 10.2653C10.2684 10.2653 10.2311 10.2746 10.1976 10.2924L9.40066 10.709C9.22406 10.7996 9.02481 10.6547 9.05651 10.46L9.20595 9.57696C9.21224 9.53934 9.20935 9.50075 9.19752 9.46448C9.18569 9.42822 9.16528 9.39534 9.13802 9.36866L8.495 8.73922C8.46333 8.70808 8.44093 8.66874 8.43033 8.6256C8.41972 8.58246 8.42132 8.53722 8.43494 8.49494C8.44857 8.45266 8.47368 8.415 8.50748 8.38617C8.54127 8.35733 8.58242 8.33847 8.62632 8.33168L9.51387 8.20489C9.59085 8.19583 9.65878 8.14602 9.695 8.07809L10.0935 7.26753C10.1795 7.09092 10.4331 7.09092 10.5192 7.26753L10.9131 8.07809C10.9493 8.14602 11.0173 8.19583 11.0942 8.20489L11.9818 8.33168C12.1765 8.36338 12.2535 8.59885 12.1131 8.73922ZM17.5607 8.73922L16.9176 9.36413C16.8633 9.41847 16.8407 9.49998 16.8542 9.57696L17.0037 10.46C17.0399 10.6502 16.8361 10.7996 16.6595 10.709L15.8671 10.2924C15.8328 10.2746 15.7948 10.2653 15.7561 10.2653C15.7175 10.2653 15.6794 10.2746 15.6452 10.2924L14.8482 10.709C14.6761 10.7996 14.4724 10.6547 14.5041 10.46L14.6535 9.57696C14.6598 9.53934 14.6569 9.50075 14.6451 9.46448C14.6332 9.42822 14.6128 9.39534 14.5856 9.36866L13.9426 8.73922C13.9109 8.70808 13.8885 8.66874 13.8779 8.6256C13.8673 8.58246 13.8689 8.53722 13.8825 8.49494C13.8961 8.45266 13.9212 8.415 13.955 8.38617C13.9888 8.35733 14.03 8.33847 14.0739 8.33168L14.9659 8.20489C15.0429 8.19583 15.1063 8.14602 15.1425 8.07809L15.541 7.26753C15.6316 7.09092 15.8807 7.09092 15.9667 7.26753L16.3652 8.07809C16.3816 8.11235 16.4064 8.14191 16.4373 8.16407C16.4681 8.18623 16.5041 8.20027 16.5418 8.20489L17.4293 8.33168C17.6241 8.36338 17.701 8.59885 17.5607 8.73922Z" fill="#F70300"/>
<path d="M22.6415 8.35036V15.6047C22.6415 16.2477 22.3788 16.8273 21.9622 17.2485C21.5411 17.6651 20.9569 17.9232 20.3184 17.9232C20.1645 17.9232 20.0467 18.0636 20.0739 18.2175L20.4588 20.7172C20.4996 20.9617 20.2098 21.1066 20.0377 20.939L17.0354 17.9956C16.9868 17.9516 16.9243 17.926 16.8588 17.9232H7.0641C6.54788 17.9232 6.07241 17.7556 5.6875 17.4704L7.40373 15.7904H16.9313C18.7109 15.7904 20.16 14.3413 20.16 12.5617V6.02734H20.3184C21.6 6.02734 22.6415 7.06433 22.6415 8.35036Z" fill="#F70300"/>
</svg>
